{
  "accessors": [
    {
      "bufferView": 2,
      "componentType": 5126,
      "count": 60680,
      "max": [
        1.1143100261688232,
        0.9200611114501953,
        -0.1088709831237793
      ],
      "min": [
        -1.3262896537780762,
        -0.9375836849212646,
        -8.739214897155762
      ],
      "type": "VEC3"
    },
    {
      "bufferView": 2,
      "byteOffset": 728160,
      "componentType": 5126,
      "count": 60680,
      "max": [
        1.0,
        1.0,
        1.0
      ],
      "min": [
        -1.0,
        -1.0,
        -1.0
      ],
      "type": "VEC3"
    },
    {
      "bufferView": 1,
      "componentType": 5126,
      "count": 60680,
      "max": [
        1.0,
        1.0
      ],
      "min": [
        0.0,
        0.0
      ],
      "type": "VEC2"
    },
    {
      "bufferView": 0,
      "componentType": 5125,
      "count": 107574,
      "type": "SCALAR"
    },
    {
      "bufferView": 2,
      "byteOffset": 1456320,
      "componentType": 5126,
      "count": 740,
      "max": [
        0.99374920129776,
        0.8133350610733032,
        -1.5374350547790527
      ],
      "min": [
        -1.0192363262176514,
        -0.8650020360946655,
        -7.372662544250488
      ],
      "type": "VEC3"
    },
    {
      "bufferView": 2,
      "byteOffset": 1465200,
      "componentType": 5126,
      "count": 740,
      "max": [
        1.0,
        1.0,
        2.526029675209429e-06
      ],
      "min": [
        -4.245879154041177e-06,
        -1.0,
        -0.0
      ],
      "type": "VEC3"
    },
    {
      "bufferView": 1,
      "byteOffset": 485440,
      "componentType": 5126,
      "count": 740,
      "max": [
        0.6230642199516296,
        0.742891252040863
      ],
      "min": [
        0.4237865209579468,
        0.014298156835138798
      ],
      "type": "VEC2"
    },
    {
      "bufferView": 0,
      "byteOffset": 430296,
      "componentType": 5125,
      "count": 1110,
      "type": "SCALAR"
    },
    {
      "bufferView": 2,
      "byteOffset": 1474080,
      "componentType": 5126,
      "count": 2421,
      "max": [
        0.9957795739173889,
        0.8133350610733032,
        -1.5374350547790527
      ],
      "min": [
        -1.225744605064392,
        -0.8650022745132446,
        -7.370501518249512
      ],
      "type": "VEC3"
    },
    {
      "bufferView": 2,
      "byteOffset": 1503132,
      "componentType": 5126,
      "count": 2421,
      "max": [
        1.0,
        1.0,
        1.0
      ],
      "min": [
        -1.0,
        -1.0,
        -1.0
      ],
      "type": "VEC3"
    },
    {
      "bufferView": 1,
      "byteOffset": 491360,
      "componentType": 5126,
      "count": 2421,
      "max": [
        0.6229904294013977,
        0.9550861716270447
      ],
      "min": [
        0.4237864911556244,
        0.055964816361665726
      ],
      "type": "VEC2"
    },
    {
      "bufferView": 0,
      "byteOffset": 434736,
      "componentType": 5125,
      "count": 3654,
      "type": "SCALAR"
    },
    {
      "bufferView": 2,
      "byteOffset": 1532184,
      "componentType": 5126,
      "count": 9018,
      "max": [
        0.35723310708999634,
        0.681708812713623,
        -7.100867748260498
      ],
      "min": [
        -0.7966096997261047,
        0.681708812713623,
        -7.219946384429932
      ],
      "type": "VEC3"
    },
    {
      "bufferView": 2,
      "byteOffset": 1640400,
      "componentType": 5126,
      "count": 9018,
      "max": [
        0.006315823644399643,
        1.0,
        -0.0
      ],
      "min": [
        -0.01311271358281374,
        -1.0,
        -0.0
      ],
      "type": "VEC3"
    },
    {
      "bufferView": 1,
      "byteOffset": 510728,
      "componentType": 5126,
      "count": 9018,
      "max": [
        33516.0,
        0.0
      ],
      "min": [
        -46234.0,
        0.0
      ],
      "type": "VEC2"
    },
    {
      "bufferView": 0,
      "byteOffset": 449352,
      "componentType": 5125,
      "count": 14844,
      "type": "SCALAR"
    },
    {
      "bufferView": 2,
      "byteOffset": 1748616,
      "componentType": 5126,
      "count": 1984,
      "max": [
        0.16881883144378662,
        0.046182215213775635,
        -8.725289344787598
      ],
      "min": [
        0.15495407581329346,
        0.03231745958328247,
        -8.738967895507813
      ],
      "type": "VEC3"
    },
    {
      "bufferView": 2,
      "byteOffset": 1772424,
      "componentType": 5126,
      "count": 1984,
      "max": [
        0.9904529452323914,
        0.9904487729072571,
        0.9962550401687622
      ],
      "min": [
        -0.990432858467102,
        -0.9904577136039734,
        -0.9962437748908997
      ],
      "type": "VEC3"
    },
    {
      "bufferView": 1,
      "byteOffset": 582872,
      "componentType": 5126,
      "count": 1984,
      "max": [
        0.9968140721321106,
        0.9438763856887817
      ],
      "min": [
        0.0031859446316957474,
        0.056123606860637665
      ],
      "type": "VEC2"
    },
    {
      "bufferView": 0,
      "byteOffset": 508728,
      "componentType": 5125,
      "count": 2880,
      "type": "SCALAR"
    }
  ],
  "asset": {
    "extras": {
      "author": "Artemis (https://sketchfab.com/ArtemMaksi)",
      "license": "CC-BY-4.0 (http://creativecommons.org/licenses/by/4.0/)",
      "source": "https://sketchfab.com/3d-models/cyberpunk-skyscraper-e7c9ef989822425e9a0e09c37b79170f",
      "title": "Cyberpunk skyscraper"
    },
    "generator": "Sketchfab-15.5.0",
    "version": "2.0"
  },
  "bufferViews": [
    {
      "buffer": 0,
      "byteLength": 520248,
      "name": "floatBufferViews",
      "target": 34963
    },
    {
      "buffer": 0,
      "byteLength": 598744,
      "byteOffset": 520248,
      "byteStride": 8,
      "name": "floatBufferViews",
      "target": 34962
    },
    {
      "buffer": 0,
      "byteLength": 1796232,
      "byteOffset": 1118992,
      "byteStride": 12,
      "name": "floatBufferViews",
      "target": 34962
    }
  ],
  "buffers": [
    {
      "byteLength": 2915224,
      "uri": "bot.bin"
    }
  ],
  "extensionsUsed": [
    "KHR_materials_clearcoat",
    "KHR_materials_emissive_strength"
  ],
  "images": [
    {
      "uri": "textures/Material.005_metallicRoughness.png"
    }
  ],
  "materials": [
    {
      "doubleSided": true,
      "extensions": {
        "KHR_materials_clearcoat": {
          "clearcoatFactor": 0.028952469188477523,
          "clearcoatRoughnessFactor": 0.09600029257232022
        }
      },
      "name": "Material.001",
      "pbrMetallicRoughness": {
        "baseColorFactor": [
          0.08278013630699911,
          0.07835324125849924,
          0.07835324125849924,
          1.0
        ]
      }
    },
    {
      "doubleSided": true,
      "emissiveFactor": [
        1.0,
        0.02023355923902978,
        0.0
      ],
      "extensions": {
        "KHR_materials_emissive_strength": {
          "emissiveStrength": 1.4476234594238764
        }
      },
      "name": "Material.002"
    },
    {
      "doubleSided": true,
      "extensions": {
        "KHR_materials_clearcoat": {
          "clearcoatFactor": 1.0,
          "clearcoatRoughnessFactor": 0.04
        }
      },
      "name": "Material.003",
      "pbrMetallicRoughness": {
        "baseColorFactor": [
          0.0203788,
          0.0203788,
          0.0203788,
          1.0
        ],
        "metallicFactor": 0.0,
        "roughnessFactor": 0.169291
      }
    },
    {
      "doubleSided": true,
      "emissiveFactor": [
        1.0,
        0.0026075499999999967,
        0.0
      ],
      "extensions": {
        "KHR_materials_emissive_strength": {
          "emissiveStrength": 2.4838170935378088
        }
      },
      "name": "Material.004"
    },
    {
      "doubleSided": true,
      "emissiveFactor": [
        1.0,
        0.0,
        0.0
      ],
      "extensions": {
        "KHR_materials_clearcoat": {
          "clearcoatFactor": 1.0,
          "clearcoatRoughnessFactor": 0.04
        },
        "KHR_materials_emissive_strength": {
          "emissiveStrength": 5.5314454291670225
        }
      },
      "name": "Material.005",
      "pbrMetallicRoughness": {
        "baseColorFactor": [
          0.07149847734860362,
          0.07149847734860362,
          0.07149847734860362,
          1.0
        ],
        "metallicFactor": 0.2971437627238483,
        "metallicRoughnessTexture": {
          "index": 0
        }
      }
    }
  ],
  "meshes": [
    {
      "name": "Object_0",
      "primitives": [
        {
          "attributes": {
            "NORMAL": 1,
            "POSITION": 0,
            "TEXCOORD_0": 2
          },
          "indices": 3,
          "material": 0,
          "mode": 4
        }
      ]
    },
    {
      "name": "Object_1",
      "primitives": [
        {
          "attributes": {
            "NORMAL": 5,
            "POSITION": 4,
            "TEXCOORD_0": 6
          },
          "indices": 7,
          "material": 1,
          "mode": 4
        }
      ]
    },
    {
      "name": "Object_2",
      "primitives": [
        {
          "attributes": {
            "NORMAL": 9,
            "POSITION": 8,
            "TEXCOORD_0": 10
          },
          "indices": 11,
          "material": 2,
          "mode": 4
        }
      ]
    },
    {
      "name": "Object_3",
      "primitives": [
        {
          "attributes": {
            "NORMAL": 13,
            "POSITION": 12,
            "TEXCOORD_0": 14
          },
          "indices": 15,
          "material": 3,
          "mode": 4
        }
      ]
    },
    {
      "name": "Object_4",
      "primitives": [
        {
          "attributes": {
            "NORMAL": 17,
            "POSITION": 16,
            "TEXCOORD_0": 18
          },
          "indices": 19,
          "material": 4,
          "mode": 4
        }
      ]
    }
  ],
  "nodes": [
    {
      "children": [
        1
      ],
      "matrix": [
        1.0,
        0.0,
        0.0,
        0.0,
        0.0,
        2.220446049250313e-16,
        -1.0,
        0.0,
        0.0,
        1.0,
        2.220446049250313e-16,
        0.0,
        0.0,
        0.0,
        0.0,
        1.0
      ],
      "name": "Sketchfab_model"
    },
    {
      "children": [
        2
      ],
      "name": "root"
    },
    {
      "children": [
        3
      ],
      "matrix": [
        1.0,
        0.0,
        0.0,
        0.0,
        0.0,
        2.220446049250313e-16,
        1.0,
        0.0,
        0.0,
        -1.0,
        2.220446049250313e-16,
        0.0,
        0.0,
        0.0,
        0.0,
        1.0
      ],
      "name": "GLTF_SceneRootNode"
    },
    {
      "children": [
        4,
        5,
        6,
        7,
        8
      ],
      "matrix": [
        -2.9802322387695313e-08,
        2.980232327587373e-08,
        -0.9999999999999991,
        0.0,
        0.9999999999999991,
        -2.9802322387695313e-08,
        -2.980232327587373e-08,
        0.0,
        -2.980232327587373e-08,
        -0.9999999999999991,
        -2.9802322387695313e-08,
        0.0,
        0.0,
        0.0,
        0.0,
        1.0
      ],
      "name": "Skyscraper1_0"
    },
    {
      "mesh": 0,
      "name": "Object_4"
    },
    {
      "mesh": 1,
      "name": "Object_5"
    },
    {
      "mesh": 2,
      "name": "Object_6"
    },
    {
      "mesh": 3,
      "name": "Object_7"
    },
    {
      "mesh": 4,
      "name": "Object_8"
    }
  ],
  "samplers": [
    {
      "magFilter": 9729,
      "minFilter": 9987,
      "wrapS": 10497,
      "wrapT": 10497
    }
  ],
  "scene": 0,
  "scenes": [
    {
      "name": "Sketchfab_Scene",
      "nodes": [
        0
      ]
    }
  ],
  "textures": [
    {
      "sampler": 0,
      "source": 0
    }
  ]
}
