{
  "accessors": [
    {
      "bufferView": 2,
      "componentType": 5126,
      "count": 320,
      "max": [
        1.0,
        0.0,
        1.0
      ],
      "min": [
        -1.0,
        -0.16422061622142792,
        -1.0
      ],
      "type": "VEC3"
    },
    {
      "bufferView": 2,
      "byteOffset": 3840,
      "componentType": 5126,
      "count": 320,
      "max": [
        0.9951983690261841,
        0.9946200847625732,
        0.9951983094215393
      ],
      "min": [
        -0.9951983690261841,
        -0.9946200847625732,
        -0.9951983094215393
      ],
      "type": "VEC3"
    },
    {
      "bufferView": 1,
      "componentType": 5126,
      "count": 320,
      "max": [
        0.0,
        0.0
      ],
      "min": [
        0.0,
        0.0
      ],
      "type": "VEC2"
    },
    {
      "bufferView": 0,
      "componentType": 5125,
      "count": 1818,
      "type": "SCALAR"
    },
    {
      "bufferView": 2,
      "byteOffset": 7680,
      "componentType": 5126,
      "count": 32,
      "max": [
        0.9695425629615784,
        0.0,
        0.9695425629615784
      ],
      "min": [
        -0.9695425629615784,
        0.0,
        -0.9695425629615784
      ],
      "type": "VEC3"
    },
    {
      "bufferView": 2,
      "byteOffset": 8064,
      "componentType": 5126,
      "count": 32,
      "max": [
        0.10359048843383789,
        -0.9946200251579285,
        0.10359108448028564
      ],
      "min": [
        -0.10359048843383789,
        -0.9946200847625732,
        -0.10359108448028564
      ],
      "type": "VEC3"
    },
    {
      "bufferView": 1,
      "byteOffset": 2560,
      "componentType": 5126,
      "count": 32,
      "max": [
        0.9998999238014221,
        0.9998999238014221
      ],
      "min": [
        9.999298345064744e-05,
        9.999298345064744e-05
      ],
      "type": "VEC2"
    },
    {
      "bufferView": 0,
      "byteOffset": 7272,
      "componentType": 5125,
      "count": 90,
      "type": "SCALAR"
    },
    {
      "bufferView": 2,
      "byteOffset": 8448,
      "componentType": 5126,
      "count": 65534,
      "max": [
        3.768523693084717,
        10.779199600219727,
        3.3730568885803223
      ],
      "min": [
        -3.856336832046509,
        -0.7272500991821289,
        -6.224641799926758
      ],
      "type": "VEC3"
    },
    {
      "bufferView": 2,
      "byteOffset": 794856,
      "componentType": 5126,
      "count": 65534,
      "max": [
        1.0,
        1.0,
        1.0
      ],
      "min": [
        -1.0,
        -1.0,
        -1.0
      ],
      "type": "VEC3"
    },
    {
      "bufferView": 1,
      "byteOffset": 2816,
      "componentType": 5126,
      "count": 65534,
      "max": [
        0.875,
        1.0000001192092896
      ],
      "min": [
        0.0,
        0.0
      ],
      "type": "VEC2"
    },
    {
      "bufferView": 0,
      "byteOffset": 7632,
      "componentType": 5125,
      "count": 245313,
      "type": "SCALAR"
    },
    {
      "bufferView": 2,
      "byteOffset": 1581264,
      "componentType": 5126,
      "count": 65532,
      "max": [
        3.7881722450256348,
        8.658148765563965,
        3.375016927719116
      ],
      "min": [
        -3.856336832046509,
        -0.7272500991821289,
        -6.23248291015625
      ],
      "type": "VEC3"
    },
    {
      "bufferView": 2,
      "byteOffset": 2367648,
      "componentType": 5126,
      "count": 65532,
      "max": [
        0.9897328019142151,
        1.0,
        0.987531304359436
      ],
      "min": [
        -0.9889266490936279,
        -1.0,
        -0.9875317811965942
      ],
      "type": "VEC3"
    },
    {
      "bufferView": 1,
      "byteOffset": 527088,
      "componentType": 5126,
      "count": 65532,
      "max": [
        0.875,
        1.0
      ],
      "min": [
        0.0,
        0.0
      ],
      "type": "VEC2"
    },
    {
      "bufferView": 0,
      "byteOffset": 988884,
      "componentType": 5125,
      "count": 127320,
      "type": "SCALAR"
    },
    {
      "bufferView": 2,
      "byteOffset": 3154032,
      "componentType": 5126,
      "count": 65532,
      "max": [
        3.4144034385681152,
        11.054372787475586,
        3.2213125228881836
      ],
      "min": [
        -0.78218013048172,
        -0.6367713809013367,
        -6.215169906616211
      ],
      "type": "VEC3"
    },
    {
      "bufferView": 2,
      "byteOffset": 3940416,
      "componentType": 5126,
      "count": 65532,
      "max": [
        1.0,
        1.0,
        1.0
      ],
      "min": [
        -1.0,
        -1.0,
        -1.0
      ],
      "type": "VEC3"
    },
    {
      "bufferView": 1,
      "byteOffset": 1051344,
      "componentType": 5126,
      "count": 65532,
      "max": [
        0.875,
        1.0
      ],
      "min": [
        0.0,
        0.0
      ],
      "type": "VEC2"
    },
    {
      "bufferView": 0,
      "byteOffset": 1498164,
      "componentType": 5125,
      "count": 122391,
      "type": "SCALAR"
    },
    {
      "bufferView": 2,
      "byteOffset": 4726800,
      "componentType": 5126,
      "count": 41563,
      "max": [
        3.5363330841064453,
        8.500828742980957,
        0.4403136968612671
      ],
      "min": [
        -3.2570834159851074,
        -0.429684579372406,
        -6.163080215454102
      ],
      "type": "VEC3"
    },
    {
      "bufferView": 2,
      "byteOffset": 5225556,
      "componentType": 5126,
      "count": 41563,
      "max": [
        0.9731208682060242,
        1.0,
        0.9730859398841858
      ],
      "min": [
        -0.9731208086013794,
        -1.0,
        -0.9730857610702515
      ],
      "type": "VEC3"
    },
    {
      "bufferView": 1,
      "byteOffset": 1575600,
      "componentType": 5126,
      "count": 41563,
      "max": [
        0.875,
        1.0
      ],
      "min": [
        0.0,
        0.0
      ],
      "type": "VEC2"
    },
    {
      "bufferView": 0,
      "byteOffset": 1987728,
      "componentType": 5125,
      "count": 72291,
      "type": "SCALAR"
    },
    {
      "bufferView": 2,
      "byteOffset": 5724312,
      "componentType": 5126,
      "count": 5022,
      "max": [
        3.3825650215148926,
        10.7487211227417,
        3.2377471923828125
      ],
      "min": [
        -3.437518358230591,
        -0.35180261731147766,
        -6.155294418334961
      ],
      "type": "VEC3"
    },
    {
      "bufferView": 2,
      "byteOffset": 5784576,
      "componentType": 5126,
      "count": 5022,
      "max": [
        1.0,
        3.1369621865451336e-05,
        1.0
      ],
      "min": [
        -1.0,
        -5.823477840749547e-05,
        -1.0
      ],
      "type": "VEC3"
    },
    {
      "bufferView": 1,
      "byteOffset": 1908104,
      "componentType": 5126,
      "count": 5022,
      "max": [
        0.860993504524231,
        0.9550861716270447
      ],
      "min": [
        0.4075170159339905,
        0.014298156835138798
      ],
      "type": "VEC2"
    },
    {
      "bufferView": 0,
      "byteOffset": 2276892,
      "componentType": 5125,
      "count": 7536,
      "type": "SCALAR"
    },
    {
      "bufferView": 2,
      "byteOffset": 5844840,
      "componentType": 5126,
      "count": 65532,
      "max": [
        3.4320123195648193,
        10.59611988067627,
        3.233835220336914
      ],
      "min": [
        -3.749202251434326,
        -0.3541140854358673,
        -6.129404067993164
      ],
      "type": "VEC3"
    },
    {
      "bufferView": 2,
      "byteOffset": 6631224,
      "componentType": 5126,
      "count": 65532,
      "max": [
        1.0,
        1.0,
        1.0
      ],
      "min": [
        -1.0,
        -1.0,
        -1.0
      ],
      "type": "VEC3"
    },
    {
      "bufferView": 1,
      "byteOffset": 1948280,
      "componentType": 5126,
      "count": 65532,
      "max": [
        0.6250000596046448,
        0.9550861716270447
      ],
      "min": [
        0.40730342268943787,
        0.024714823812246323
      ],
      "type": "VEC2"
    },
    {
      "bufferView": 0,
      "byteOffset": 2307036,
      "componentType": 5125,
      "count": 135282,
      "type": "SCALAR"
    },
    {
      "bufferView": 2,
      "byteOffset": 7417608,
      "componentType": 5126,
      "count": 37612,
      "max": [
        3.3835501670837402,
        1.7093446254730225,
        3.175847053527832
      ],
      "min": [
        -0.19700248539447784,
        -0.35180261731147766,
        1.7977075576782227
      ],
      "type": "VEC3"
    },
    {
      "bufferView": 2,
      "byteOffset": 7868952,
      "componentType": 5126,
      "count": 37612,
      "max": [
        0.9870063066482544,
        1.0,
        0.9346947073936462
      ],
      "min": [
        -0.9870055913925171,
        -1.0,
        -0.987009584903717
      ],
      "type": "VEC3"
    },
    {
      "bufferView": 1,
      "byteOffset": 2472536,
      "componentType": 5126,
      "count": 37612,
      "max": [
        0.5979623794555664,
        0.6354570984840393
      ],
      "min": [
        0.4075169861316681,
        0.14104966819286346
      ],
      "type": "VEC2"
    },
    {
      "bufferView": 0,
      "byteOffset": 2848164,
      "componentType": 5125,
      "count": 85374,
      "type": "SCALAR"
    },
    {
      "bufferView": 2,
      "byteOffset": 8320296,
      "componentType": 5126,
      "count": 10156,
      "max": [
        3.1648850440979004,
        2.217552900314331,
        3.177100896835327
      ],
      "min": [
        -2.892650842666626,
        0.5140451192855835,
        -3.3455405235290527
      ],
      "type": "VEC3"
    },
    {
      "bufferView": 2,
      "byteOffset": 8442168,
      "componentType": 5126,
      "count": 10156,
      "max": [
        0.9875282049179077,
        0.00012408212933223695,
        0.9346890449523926
      ],
      "min": [
        -0.4861242473125458,
        -0.00019302252621855587,
        -0.3555993139743805
      ],
      "type": "VEC3"
    },
    {
      "bufferView": 1,
      "byteOffset": 2773432,
      "componentType": 5126,
      "count": 10156,
      "max": [
        0.5977029204368591,
        0.6350583434104919
      ],
      "min": [
        0.4836893081665039,
        0.1654515117406845
      ],
      "type": "VEC2"
    },
    {
      "bufferView": 0,
      "byteOffset": 3189660,
      "componentType": 5125,
      "count": 15234,
      "type": "SCALAR"
    },
    {
      "bufferView": 2,
      "byteOffset": 8564040,
      "componentType": 5126,
      "count": 260,
      "max": [
        3.4572949409484863,
        0.5238598585128784,
        -3.729818820953369
      ],
      "min": [
        2.832939624786377,
        -0.25393635034561157,
        -4.599908351898193
      ],
      "type": "VEC3"
    },
    {
      "bufferView": 2,
      "byteOffset": 8567160,
      "componentType": 5126,
      "count": 260,
      "max": [
        0.542622447013855,
        -0.01004499476402998,
        0.8399326801300049
      ],
      "min": [
        -0.5426269173622131,
        -0.010307432152330875,
        -0.839928150177002
      ],
      "type": "VEC3"
    },
    {
      "bufferView": 1,
      "byteOffset": 2854680,
      "componentType": 5126,
      "count": 260,
      "max": [
        0.5718405842781067,
        0.49075204133987427
      ],
      "min": [
        0.5653666257858276,
        0.46237295866012573
      ],
      "type": "VEC2"
    },
    {
      "bufferView": 0,
      "byteOffset": 3250596,
      "componentType": 5125,
      "count": 390,
      "type": "SCALAR"
    },
    {
      "bufferView": 2,
      "byteOffset": 8570280,
      "componentType": 5126,
      "count": 124,
      "max": [
        3.4584708213806152,
        0.5238598585128784,
        -4.481049537658691
      ],
      "min": [
        3.276547908782959,
        -0.25393635034561157,
        -4.598252773284912
      ],
      "type": "VEC3"
    },
    {
      "bufferView": 2,
      "byteOffset": 8571768,
      "componentType": 5126,
      "count": 124,
      "max": [
        -0.5426007509231567,
        -0.010290696285665035,
        0.839927613735199
      ],
      "min": [
        -0.5426299571990967,
        -0.010310953482985497,
        0.8399088382720947
      ],
      "type": "VEC3"
    },
    {
      "bufferView": 3,
      "componentType": 5126,
      "count": 124,
      "max": [
        0.8399896025657654,
        0.8891825675964355,
        0.5425801277160645,
        1.0
      ],
      "min": [
        -0.8399768471717834,
        -0.9916728138923645,
        -0.5426762700080872,
        -1.0
      ],
      "type": "VEC4"
    },
    {
      "bufferView": 1,
      "byteOffset": 2856760,
      "componentType": 5126,
      "count": 124,
      "max": [
        0.5711159706115723,
        0.49075204133987427
      ],
      "min": [
        0.5685319304466248,
        0.49075189232826233
      ],
      "type": "VEC2"
    },
    {
      "bufferView": 1,
      "byteOffset": 2857752,
      "componentType": 5126,
      "count": 124,
      "max": [
        0.5711159706115723,
        0.49075204133987427
      ],
      "min": [
        0.5685319304466248,
        0.49075189232826233
      ],
      "type": "VEC2"
    },
    {
      "bufferView": 1,
      "byteOffset": 2858744,
      "componentType": 5126,
      "count": 124,
      "max": [
        0.5711159706115723,
        0.49075204133987427
      ],
      "min": [
        0.5685319304466248,
        0.49075189232826233
      ],
      "type": "VEC2"
    },
    {
      "bufferView": 1,
      "byteOffset": 2859736,
      "componentType": 5126,
      "count": 124,
      "max": [
        0.5711159706115723,
        0.49075204133987427
      ],
      "min": [
        0.5685319304466248,
        0.49075189232826233
      ],
      "type": "VEC2"
    },
    {
      "bufferView": 0,
      "byteOffset": 3252156,
      "componentType": 5125,
      "count": 186,
      "type": "SCALAR"
    }
  ],
  "asset": {
    "extras": {
      "author": "Artemis (https://sketchfab.com/Artemis26)",
      "license": "CC-BY-4.0 (http://creativecommons.org/licenses/by/4.0/)",
      "source": "https://sketchfab.com/3d-models/cyberpunk-skyscrapers-set-9acbf256afe84283baacf3ee617d2aaf",
      "title": "Cyberpunk skyscrapers set"
    },
    "generator": "Sketchfab-15.22.0",
    "version": "2.0"
  },
  "bufferViews": [
    {
      "buffer": 0,
      "byteLength": 3252900,
      "name": "floatBufferViews",
      "target": 34963
    },
    {
      "buffer": 0,
      "byteLength": 2860728,
      "byteOffset": 3252900,
      "byteStride": 8,
      "name": "floatBufferViews",
      "target": 34962
    },
    {
      "buffer": 0,
      "byteLength": 8573256,
      "byteOffset": 6113628,
      "byteStride": 12,
      "name": "floatBufferViews",
      "target": 34962
    },
    {
      "buffer": 0,
      "byteLength": 1984,
      "byteOffset": 14686884,
      "byteStride": 16,
      "name": "floatBufferViews",
      "target": 34962
    }
  ],
  "buffers": [
    {
      "byteLength": 14688868,
      "uri": "bot.bin"
    }
  ],
  "extensionsUsed": [
    "KHR_materials_emissive_strength"
  ],
  "images": [
    {
      "uri": "textures/Material.005_metallicRoughness.png"
    },
    {
      "uri": "textures/20_-_Default_baseColor.png"
    },
    {
      "uri": "textures/20_-_Default_metallicRoughness.png"
    },
    {
      "uri": "textures/20_-_Default_normal.png"
    }
  ],
  "materials": [
    {
      "doubleSided": true,
      "name": "Material.004",
      "pbrMetallicRoughness": {
        "baseColorFactor": [
          0.0374098,
          0.0374098,
          0.0374098,
          1.0
        ],
        "metallicFactor": 0.692913,
        "roughnessFactor": 0.5
      }
    },
    {
      "doubleSided": true,
      "name": "Material.005",
      "pbrMetallicRoughness": {
        "baseColorFactor": [
          0.03421842137872357,
          0.03421842137872357,
          0.03421842137872357,
          1.0
        ],
        "metallicFactor": 0.0,
        "metallicRoughnessTexture": {
          "index": 0
        }
      }
    },
    {
      "doubleSided": true,
      "name": "Material.001",
      "pbrMetallicRoughness": {
        "baseColorFactor": [
          0.2307903924940071,
          0.21771999821364318,
          0.21771999821364318,
          1.0
        ],
        "metallicRoughnessTexture": {
          "index": 0
        }
      }
    },
    {
      "doubleSided": true,
      "emissiveFactor": [
        0.7579697625090449,
        0.01636666790368257,
        0.0
      ],
      "extensions": {
        "KHR_materials_emissive_strength": {
          "emissiveStrength": 5.836208262729943
        }
      },
      "name": "Material.002"
    },
    {
      "doubleSided": true,
      "name": "Material.003",
      "pbrMetallicRoughness": {
        "baseColorFactor": [
          0.0203788,
          0.0203788,
          0.0203788,
          1.0
        ],
        "metallicFactor": 0.0,
        "roughnessFactor": 0.169291
      }
    },
    {
      "doubleSided": true,
      "emissiveFactor": [
        1.0,
        0.269671,
        0.124791
      ],
      "name": "Material.010"
    },
    {
      "doubleSided": true,
      "emissiveFactor": [
        1.0,
        0.0110234,
        0.0156728
      ],
      "name": "Material.025"
    },
    {
      "doubleSided": true,
      "name": "20_-_Default",
      "normalTexture": {
        "index": 3
      },
      "pbrMetallicRoughness": {
        "baseColorTexture": {
          "index": 1
        },
        "metallicRoughnessTexture": {
          "index": 2
        }
      }
    }
  ],
  "meshes": [
    {
      "name": "Object_0",
      "primitives": [
        {
          "attributes": {
            "NORMAL": 1,
            "POSITION": 0,
            "TEXCOORD_0": 2
          },
          "indices": 3,
          "material": 0,
          "mode": 4
        }
      ]
    },
    {
      "name": "Object_1",
      "primitives": [
        {
          "attributes": {
            "NORMAL": 5,
            "POSITION": 4,
            "TEXCOORD_0": 6
          },
          "indices": 7,
          "material": 1,
          "mode": 4
        }
      ]
    },
    {
      "name": "Object_2",
      "primitives": [
        {
          "attributes": {
            "NORMAL": 9,
            "POSITION": 8,
            "TEXCOORD_0": 10
          },
          "indices": 11,
          "material": 2,
          "mode": 4
        }
      ]
    },
    {
      "name": "Object_3",
      "primitives": [
        {
          "attributes": {
            "NORMAL": 13,
            "POSITION": 12,
            "TEXCOORD_0": 14
          },
          "indices": 15,
          "material": 2,
          "mode": 4
        }
      ]
    },
    {
      "name": "Object_4",
      "primitives": [
        {
          "attributes": {
            "NORMAL": 17,
            "POSITION": 16,
            "TEXCOORD_0": 18
          },
          "indices": 19,
          "material": 2,
          "mode": 4
        }
      ]
    },
    {
      "name": "Object_5",
      "primitives": [
        {
          "attributes": {
            "NORMAL": 21,
            "POSITION": 20,
            "TEXCOORD_0": 22
          },
          "indices": 23,
          "material": 2,
          "mode": 4
        }
      ]
    },
    {
      "name": "Object_6",
      "primitives": [
        {
          "attributes": {
            "NORMAL": 25,
            "POSITION": 24,
            "TEXCOORD_0": 26
          },
          "indices": 27,
          "material": 3,
          "mode": 4
        }
      ]
    },
    {
      "name": "Object_7",
      "primitives": [
        {
          "attributes": {
            "NORMAL": 29,
            "POSITION": 28,
            "TEXCOORD_0": 30
          },
          "indices": 31,
          "material": 4,
          "mode": 4
        }
      ]
    },
    {
      "name": "Object_8",
      "primitives": [
        {
          "attributes": {
            "NORMAL": 33,
            "POSITION": 32,
            "TEXCOORD_0": 34
          },
          "indices": 35,
          "material": 4,
          "mode": 4
        }
      ]
    },
    {
      "name": "Object_9",
      "primitives": [
        {
          "attributes": {
            "NORMAL": 37,
            "POSITION": 36,
            "TEXCOORD_0": 38
          },
          "indices": 39,
          "material": 5,
          "mode": 4
        }
      ]
    },
    {
      "name": "Object_10",
      "primitives": [
        {
          "attributes": {
            "NORMAL": 41,
            "POSITION": 40,
            "TEXCOORD_0": 42
          },
          "indices": 43,
          "material": 6,
          "mode": 4
        }
      ]
    },
    {
      "name": "Object_11",
      "primitives": [
        {
          "attributes": {
            "NORMAL": 45,
            "POSITION": 44,
            "TANGENT": 46,
            "TEXCOORD_0": 47,
            "TEXCOORD_1": 48,
            "TEXCOORD_2": 49,
            "TEXCOORD_3": 50
          },
          "indices": 51,
          "material": 7,
          "mode": 4
        }
      ]
    }
  ],
  "nodes": [
    {
      "children": [
        1
      ],
      "matrix": [
        1.0,
        0.0,
        0.0,
        0.0,
        0.0,
        2.220446049250313e-16,
        -1.0,
        0.0,
        0.0,
        1.0,
        2.220446049250313e-16,
        0.0,
        0.0,
        0.0,
        0.0,
        1.0
      ],
      "name": "Sketchfab_model"
    },
    {
      "children": [
        2
      ],
      "name": "root"
    },
    {
      "children": [
        3,
        6
      ],
      "matrix": [
        1.0,
        0.0,
        0.0,
        0.0,
        0.0,
        2.220446049250313e-16,
        1.0,
        0.0,
        0.0,
        -1.0,
        2.220446049250313e-16,
        0.0,
        0.0,
        0.0,
        0.0,
        1.0
      ],
      "name": "GLTF_SceneRootNode"
    },
    {
      "children": [
        4,
        5
      ],
      "matrix": [
        27.357866287231445,
        0.0,
        0.0,
        0.0,
        0.0,
        27.357866287231445,
        0.0,
        0.0,
        0.0,
        0.0,
        27.357866287231445,
        0.0,
        0.0,
        0.0,
        0.0,
        1.0
      ],
      "name": "Circle_0"
    },
    {
      "mesh": 0,
      "name": "Object_4"
    },
    {
      "mesh": 1,
      "name": "Object_5"
    },
    {
      "children": [
        7,
        8,
        9,
        10,
        11,
        12,
        13,
        14,
        15,
        16
      ],
      "matrix": [
        -2.8147287082938184,
        0.0,
        1.2302435465775183,
        0.0,
        0.0,
        3.0718393325805664,
        0.0,
        0.0,
        -1.2302435465775183,
        0.0,
        -2.8147287082938184,
        0.0,
        1.1690282821655273,
        1.010522484779358,
        -2.6507163047790527,
        1.0
      ],
      "name": "Cube.001_RLExtr.003_1"
    },
    {
      "mesh": 2,
      "name": "Object_7"
    },
    {
      "mesh": 3,
      "name": "Object_8"
    },
    {
      "mesh": 4,
      "name": "Object_9"
    },
    {
      "mesh": 5,
      "name": "Object_10"
    },
    {
      "mesh": 6,
      "name": "Object_11"
    },
    {
      "mesh": 7,
      "name": "Object_12"
    },
    {
      "mesh": 8,
      "name": "Object_13"
    },
    {
      "mesh": 9,
      "name": "Object_14"
    },
    {
      "mesh": 10,
      "name": "Object_15"
    },
    {
      "mesh": 11,
      "name": "Object_16"
    }
  ],
  "samplers": [
    {
      "magFilter": 9729,
      "minFilter": 9987,
      "wrapS": 10497,
      "wrapT": 10497
    }
  ],
  "scene": 0,
  "scenes": [
    {
      "name": "Sketchfab_Scene",
      "nodes": [
        0
      ]
    }
  ],
  "textures": [
    {
      "sampler": 0,
      "source": 0
    },
    {
      "sampler": 0,
      "source": 1
    },
    {
      "sampler": 0,
      "source": 2
    },
    {
      "sampler": 0,
      "source": 3
    }
  ]
}
